<?xml version="1.0" encoding="UTF-8" standalone="no"?>
<svg
   xmlns:dc="http://purl.org/dc/elements/1.1/"
   xmlns:cc="http://creativecommons.org/ns#"
   xmlns:rdf="http://www.w3.org/1999/02/22-rdf-syntax-ns#"
   xmlns:svg="http://www.w3.org/2000/svg"
   xmlns="http://www.w3.org/2000/svg"
   viewBox="0 0 627.79999 83.493332"
   height="83.493332"
   width="627.79999"
   xml:space="preserve"
   id="svg2"
   version="1.1"><metadata
     id="metadata8"><rdf:RDF><cc:Work
         rdf:about=""><dc:format>image/svg+xml</dc:format><dc:type
           rdf:resource="http://purl.org/dc/dcmitype/StillImage" /></cc:Work></rdf:RDF></metadata><defs
     id="defs6"><clipPath
       id="clipPath20"
       clipPathUnits="userSpaceOnUse"><path
         id="path18"
         d="M 0,0 H 4708.55 V 626 H 0 Z" /></clipPath></defs><g
     transform="matrix(1.3333333,0,0,-1.3333333,0,83.493333)"
     id="g10"><g
       transform="scale(0.1)"
       id="g12"><g
         id="g14"><g
           clip-path="url(#clipPath20)"
           id="g16"><path
             id="path22"
             style="fill:#ffffff;fill-opacity:1;fill-rule:nonzero;stroke:none"
             d="m 2960.4,28.6992 c 0,0 103.49,-28.70310625 235.68,-28.70310625 140.87,0 206.09,15.65620625 206.09,15.65620625 V 120.016 c 0,0 -70.44,-13.914 -168.7,-13.914 -86.09,0 -139.16,11.316 -139.16,11.316 V 265.25 h 267.02 v 104.367 h -267.02 v 140.879 c 0,0 52.18,9.57 130.46,9.57 87.86,0 166.98,-13.914 166.98,-13.914 v 105.231 c 0,0 -69.57,14.793 -182.64,14.793 -150.44,0 -248.71,-26.985 -248.71,-26.985 z M 1052.32,266.129 c -3.49,-8.699 -7.82,-25.234 -10.43,-34.805 -2.61,9.571 -6.96,26.106 -10.43,34.805 L 913.168,569.633 c -20,50.437 -51.293,56.543 -108.695,56.543 -20.012,0 -60.895,-2.613 -60.895,-2.613 L 682.707,8.69922 H 817.52 L 847.078,420.922 974.914,108.707 c 9.582,-24.3437 28.706,-33.914 66.976,-33.914 38.25,0 57.4,9.5703 66.96,33.914 l 127.83,312.215 29.58,-412.22278 h 134.79 L 1340.18,623.563 c 0,0 -40.88,2.613 -60.87,2.613 -57.4,0 -88.7,-6.106 -108.72,-56.543 z M 377.461,140.016 c -28.707,-11.309 -98.293,-33.914 -149.594,-33.914 -55.656,0 -97.398,19.128 -97.398,80.007 0,53.047 28.679,83.477 105.238,86.094 l 141.754,5.215 z m -80.02,486.16 C 177.426,626.176 83.5,596.594 46.9727,578.328 L 75.6719,477.449 c 0,0 92.2031,33.047 182.6331,33.047 77.402,0 117.402,-21.734 117.402,-98.266 V 368.738 H 258.305 C 59.1484,368.738 0,277.418 0,176.531 0,42.6133 104.367,-0.00390625 199.168,-0.00390625 c 110.445,0 174.809,46.09370625 182.629,46.09370625 6.098,0 28.703,-24.3437 129.574,-24.3437 V 447.883 c 0,127.832 -79.133,178.293 -213.93,178.293 z M 1911.57,140.016 c -28.71,-11.309 -98.29,-33.914 -149.58,-33.914 -55.67,0 -97.42,19.128 -97.42,80.007 0,53.047 28.7,83.477 105.23,86.094 l 141.77,5.215 z m -80.03,486.16 c -120.02,0 -213.93,-29.582 -250.46,-47.848 l 28.7,-100.879 c 0,0 92.2,33.047 182.63,33.047 77.4,0 117.4,-21.734 117.4,-98.266 v -43.492 h -117.4 c -199.15,0 -258.3,-91.32 -258.3,-192.207 0,-133.9177 104.37,-176.53490625 199.17,-176.53490625 110.44,0 174.8,46.09370625 182.63,46.09370625 6.09,0 28.7,-24.3437 129.58,-24.3437 V 447.883 c 0,127.832 -79.14,178.293 -213.95,178.293 z m 2133.32,-464.41 c -32.17,-15.645 -101.74,-41.75 -165.21,-41.75 -92.22,0 -107.86,41.75 -107.86,137.414 v 363.523 c 0,0 -8.71,0 -20,0 -30.43,0 -98.28,-5.219 -114.8,-8.703 V 240.035 c 0,-162.6444 40.01,-240.03890625 205.24,-240.03890625 126.11,0 200.02,48.69140625 205.23,48.69140625 1.75,0 45.24,-26.9414 132.25,-26.9414 V 612.25 c -9.57,1.742 -74.84,8.703 -107.9,8.703 -12.16,0 -26.95,0 -26.95,0 z M 4258.92,21.7461 c 0,0 83.49,-21.75000625 200.03,-21.75000625 110.45,0 249.59,37.39450625 249.59,186.97290625 0,97.422 -72.18,139.16 -189.59,181.769 -63.47,23.485 -117.41,44.36 -117.41,87.852 0,20.859 15.67,61.726 96.54,61.726 75.67,0 153.08,-34.773 153.08,-34.773 l 33.92,100.004 c -22.64,11.308 -96.56,42.629 -199.16,42.629 -111.32,0 -220.04,-59.149 -220.04,-178.293 0,-122.637 111.32,-160.024 198.28,-188.727 59.16,-20 108.72,-40.879 108.72,-80.008 0,-38.242 -20.87,-71.308 -120.89,-71.308 -81.75,0 -168.72,18.25 -168.72,18.25 z M 2375.97,509.633 c 21.73,4.344 64.35,10.433 106.96,10.433 97.4,0 173.95,-54.789 173.95,-202.648 0,-143.496 -37.42,-211.316 -186.11,-211.316 -47.84,0 -94.8,6.953 -94.8,6.953 z m 113.05,116.543 c -76.52,0 -182.63,-13.055 -247.85,-36.531 V 18.2695 c 53.92,-11.32028 154.81,-18.27340625 225.25,-18.27340625 240.02,0 333.08,93.93750625 333.08,317.42190625 0,193.078 -118.29,308.758 -310.48,308.758 v 0" /></g></g></g></g></svg>